<svg width="100" height="83" viewBox="0 0 100 83" fill="none" xmlns="http://www.w3.org/2000/svg">
<path d="M45.1401 63.2765C45.1401 58.1 43.7572 53.7588 40.9914 50.2353C39.0312 47.8118 36.3736 46.2176 33.0125 45.4588C29.7055 44.7059 26.5789 44.6529 23.753 45.2941C22.7909 39.7059 24.3542 33.7882 28.3226 27.5176C32.291 21.2529 37.4319 16.5353 43.7031 13.3824L34.197 0C29.3869 2.32941 24.8172 5.28235 20.6083 8.85294C16.3393 12.4235 12.5513 16.5294 9.1842 21.1706C5.81709 25.8118 3.29176 31.0529 1.66833 36.9941C0.0448999 42.9353 -0.406051 48.9941 0.369587 55.2294C1.37972 63.4647 4.09746 70.0529 8.52281 74.9353C12.9421 79.8823 18.4558 82.3529 25.0457 82.3529C30.848 82.3529 35.6641 80.647 39.4762 77.1882C43.2522 73.8 45.1281 69.1588 45.1281 63.2588L45.1401 63.2765ZM100 63.2765C100 58.1 98.6171 53.7588 95.8512 50.2353C93.8911 47.7647 91.2215 46.1647 87.8724 45.4294C84.5053 44.7 81.4208 44.6647 78.6128 45.3C77.6508 39.7706 79.154 33.8294 83.1344 27.5353C87.1028 21.3 92.2316 16.5941 98.5028 13.4176L89.0208 0C84.2106 2.32941 79.6711 5.28235 75.4321 8.85294C71.1242 12.4764 67.2983 16.6147 64.0441 21.1706C60.701 25.8176 58.2117 31.0529 56.5883 36.9941C54.9457 42.9317 54.5025 49.1258 55.2836 55.2294C56.2817 63.4647 58.9874 70.0529 63.4007 74.9353C67.808 79.8412 73.3036 82.3 79.8935 82.3C85.7078 82.3 90.524 80.5941 94.336 77.1412C98.106 73.7529 100 69.1118 100 63.2118V63.2765Z" fill="#E1E7EA"/>
<path d="M45.1401 63.2765C45.1401 58.1 43.7572 53.7588 40.9914 50.2353C39.0312 47.8118 36.3736 46.2176 33.0125 45.4588C29.7055 44.7059 26.5789 44.6529 23.753 45.2941C22.7909 39.7059 24.3542 33.7882 28.3226 27.5176C32.291 21.2529 37.4319 16.5353 43.7031 13.3824L34.197 0C29.3869 2.32941 24.8172 5.28235 20.6083 8.85294C16.3393 12.4235 12.5513 16.5294 9.1842 21.1706C5.81709 25.8118 3.29176 31.0529 1.66833 36.9941C0.0448999 42.9353 -0.406051 48.9941 0.369587 55.2294C1.37972 63.4647 4.09746 70.0529 8.52281 74.9353C12.9421 79.8823 18.4558 82.3529 25.0457 82.3529C30.848 82.3529 35.6641 80.647 39.4762 77.1882C43.2522 73.8 45.1281 69.1588 45.1281 63.2588L45.1401 63.2765ZM100 63.2765C100 58.1 98.6171 53.7588 95.8512 50.2353C93.8911 47.7647 91.2215 46.1647 87.8724 45.4294C84.5053 44.7 81.4208 44.6647 78.6128 45.3C77.6508 39.7706 79.154 33.8294 83.1344 27.5353C87.1028 21.3 92.2316 16.5941 98.5028 13.4176L89.0208 0C84.2106 2.32941 79.6711 5.28235 75.4321 8.85294C71.1242 12.4764 67.2983 16.6147 64.0441 21.1706C60.701 25.8176 58.2117 31.0529 56.5883 36.9941C54.9457 42.9317 54.5025 49.1258 55.2836 55.2294C56.2817 63.4647 58.9874 70.0529 63.4007 74.9353C67.808 79.8412 73.3036 82.3 79.8935 82.3C85.7078 82.3 90.524 80.5941 94.336 77.1412C98.106 73.7529 100 69.1118 100 63.2118V63.2765Z" fill="#4C3C26" fill-opacity="0.5"/>
</svg>
